<svg xmlns="http://www.w3.org/2000/svg" width="1400" height="780" viewBox="0 0 1400 780">
  <defs>
    <linearGradient id="bg" x1="0%" y1="0%" x2="100%" y2="100%">
      <stop offset="0%" stop-color="#050508"/>
      <stop offset="100%" stop-color="#0a0a12"/>
    </linearGradient>
    <linearGradient id="accent" x1="0%" y1="0%" x2="100%" y2="0%">
      <stop offset="0%" stop-color="#00f0ff"/>
      <stop offset="55%" stop-color="#d946ef"/>
      <stop offset="100%" stop-color="#a855f7"/>
    </linearGradient>
    <filter id="glow" x="-20%" y="-20%" width="140%" height="140%">
      <feGaussianBlur stdDeviation="2" result="b"/>
      <feMerge><feMergeNode in="b"/><feMergeNode in="SourceGraphic"/></feMerge>
    </filter>
  </defs>
  <rect width="1400" height="780" rx="12" fill="url(#bg)"/>
  <rect x="20" y="16" width="1360" height="48" rx="8" fill="rgba(12,14,22,.85)" stroke="rgba(0,240,255,.22)"/>
  <text x="40" y="46" fill="#00f0ff" font-family="ui-monospace,Consolas,monospace" font-size="11" letter-spacing="4">BREACHMARK ù SOC COMMAND</text>
  <text x="1180" y="46" fill="#94a3b8" font-family="ui-monospace,Consolas,monospace" font-size="11">T+240s</text>

  <rect x="20" y="76" width="1000" height="520" rx="12" fill="rgba(10,10,14,.9)" stroke="rgba(0,240,255,.18)"/>
  <text x="44" y="108" fill="#64748b" font-family="Segoe UI,system-ui,sans-serif" font-size="11" letter-spacing="3">NETWORK TOPOLOGY</text>
  <circle cx="220" cy="320" r="52" fill="rgba(8,8,12,.95)" stroke="#f59e0b" stroke-width="2" filter="url(#glow)"/>
  <text x="188" y="325" fill="#f0f9ff" font-family="ui-monospace,monospace" font-size="12">FIN-WS</text>
  <circle cx="420" cy="240" r="48" fill="rgba(8,8,12,.95)" stroke="#00f0ff" stroke-width="2"/>
  <text x="395" y="245" fill="#f0f9ff" font-family="ui-monospace,monospace" font-size="12">DC-01</text>
  <circle cx="640" cy="320" r="48" fill="rgba(8,8,12,.95)" stroke="#ff6b35" stroke-width="2" filter="url(#glow)"/>
  <text x="612" y="325" fill="#f0f9ff" font-family="ui-monospace,monospace" font-size="12">S3</text>
  <line x1="272" y1="320" x2="368" y2="260" stroke="#00f0ff" stroke-width="2" opacity=".8"/>
  <line x1="468" y1="260" x2="590" y2="310" stroke="#ff6b35" stroke-width="2.5" opacity=".9"/>
  <rect x="900" y="400" width="90" height="56" rx="6" fill="rgba(0,240,255,.08)" stroke="rgba(0,240,255,.35)"/>
  <text x="912" y="434" fill="#00f0ff" font-family="ui-monospace,monospace" font-size="10">MINIMAP</text>

  <rect x="20" y="608" width="1000" height="156" rx="12" fill="rgba(10,10,14,.92)" stroke="rgba(0,240,255,.2)"/>
  <text x="44" y="642" fill="#00f0ff" font-family="Segoe UI,system-ui,sans-serif" font-size="11" letter-spacing="4">ATTACK TIMELINE</text>
  <text x="44" y="688" fill="#f0f9ff" font-family="ui-monospace,monospace" font-size="28" font-weight="700">T+240s</text>
  <rect x="44" y="708" width="940" height="10" rx="5" fill="rgba(30,30,40,.9)"/>
  <rect x="44" y="708" width="380" height="10" rx="5" fill="url(#accent)"/>
  <line x1="420" y1="698" x2="420" y2="728" stroke="#00f0ff" stroke-width="3" filter="url(#glow)"/>

  <rect x="1036" y="76" width="344" height="248" rx="12" fill="rgba(10,10,14,.92)" stroke="rgba(0,240,255,.2)"/>
  <text x="1060" y="108" fill="#64748b" font-family="Segoe UI,sans-serif" font-size="10" letter-spacing="3">TACTICAL HUD</text>
  <rect x="1060" y="124" width="140" height="56" rx="8" fill="rgba(0,240,255,.06)" stroke="rgba(0,240,255,.15)"/>
  <text x="1072" y="148" fill="#94a3b8" font-family="ui-monospace,monospace" font-size="9">MTTD</text>
  <text x="1072" y="172" fill="#00f0ff" font-family="ui-monospace,monospace" font-size="16" filter="url(#glow)">62s</text>
  <rect x="1212" y="124" width="140" height="56" rx="8" fill="rgba(217,70,239,.06)" stroke="rgba(217,70,239,.2)"/>
  <text x="1224" y="148" fill="#94a3b8" font-family="ui-monospace,monospace" font-size="9">CONTAINED</text>
  <text x="1224" y="172" fill="#d946ef" font-family="ui-monospace,monospace" font-size="16">3/10</text>
  <text x="1060" y="230" fill="#94a3b8" font-family="sans-serif" font-size="11">Records exfiltrated</text>
  <text x="1310" y="230" fill="#ff6b35" font-family="ui-monospace,monospace" font-size="13">0</text>

  <rect x="1036" y="336" width="344" height="428" rx="12" fill="rgba(10,10,14,.92)" stroke="rgba(0,240,255,.2)"/>
  <text x="1060" y="368" fill="#64748b" font-family="Segoe UI,sans-serif" font-size="10" letter-spacing="3">RESPONSE CONTROLS</text>
  <text x="1060" y="396" fill="#00f0ff" font-family="ui-monospace,monospace" font-size="22">7 / 12</text>
  <text x="1210" y="396" fill="#64748b" font-family="ui-monospace,monospace" font-size="14">credits</text>

  <rect x="1060" y="414" width="296" height="64" rx="8" fill="rgba(8,8,14,.9)" stroke="rgba(0,240,255,.18)"/>
  <text x="1080" y="442" fill="#f0f9ff" font-family="Segoe UI,sans-serif" font-size="14" font-weight="600">Isolate host</text>
  <rect x="1280" y="430" width="56" height="28" rx="6" fill="rgba(0,240,255,.12)" stroke="#00f0ff"/>
  <text x="1292" y="449" fill="#00f0ff" font-family="ui-monospace,monospace" font-size="11">3 cr</text>

  <rect x="1060" y="492" width="296" height="64" rx="8" fill="rgba(8,8,14,.75)" stroke="rgba(255,255,255,.06)"/>
  <text x="1080" y="520" fill="#cbd5e1" font-family="Segoe UI,sans-serif" font-size="14">Force password reset</text>
  <rect x="1280" y="508" width="56" height="28" rx="6" fill="rgba(0,240,255,.08)" stroke="rgba(0,240,255,.3)"/>
  <text x="1294" y="527" fill="#00f0ff" font-family="ui-monospace,monospace" font-size="11">2 cr</text>

  <text x="60" y="758" fill="#475569" font-family="ui-monospace,monospace" font-size="10">Illustrative mock  open the live demo for the full interactive build.</text>
</svg>
