<svg xmlns="http://www.w3.org/2000/svg" width="1280" height="720" viewBox="0 0 1280 720"><rect width="1280" height="720" fill="#0a0a0a"/><defs><pattern id="grid" width="36" height="36" patternUnits="userSpaceOnUse"><path d="M36 0H0V36" fill="none" stroke="#00f0ff" stroke-opacity=".05"/></pattern><filter id="glow"><feGaussianBlur stdDeviation="3" result="b"/><feMerge><feMergeNode in="b"/><feMergeNode in="SourceGraphic"/></feMerge></filter></defs><rect width="1280" height="720" fill="url(#grid)"/><text x="36" y="54" fill="#f0f0f0" font-family="Inter,Arial" font-size="28" font-weight="900">Breach<tspan fill="#00f0ff">Mark</tspan></text><rect x="28" y="84" width="855" height="430" rx="12" fill="#111113" fill-opacity=".82" stroke="#00f0ff" stroke-opacity=".2"/><text x="52" y="122" fill="#a0a0a0" font-family="JetBrains Mono,monospace" font-size="13">NETWORK TOPOLOGY</text><g stroke="#00f0ff" stroke-width="2" stroke-dasharray="8 4" stroke-opacity=".65"><path d="M155 295L320 205L520 285L730 185"/><path d="M320 205L430 410L650 360"/><path d="M520 285L650 360L760 430"/></g><g font-family="JetBrains Mono,monospace" font-size="14" text-anchor="middle" fill="#f0f0f0"><rect x="105" y="268" width="100" height="54" rx="8" fill="#111113" stroke="#ff3b5c" filter="url(#glow)"/><text x="155" y="300">FIN-WS</text><rect x="270" y="178" width="100" height="54" rx="8" fill="#111113" stroke="#00f0ff"/><text x="320" y="210">DC-01</text><rect x="470" y="258" width="100" height="54" rx="8" fill="#111113" stroke="#fbbf24"/><text x="520" y="290">FILES</text><rect x="680" y="158" width="100" height="54" rx="8" fill="#111113" stroke="#22ff88"/><text x="730" y="190">EDGE</text><rect x="600" y="333" width="100" height="54" rx="8" fill="#111113" stroke="#c026d3"/><text x="650" y="365">SIEM</text><rect x="710" y="403" width="100" height="54" rx="8" fill="#111113" stroke="#00f0ff"/><text x="760" y="435">S3</text></g><rect x="28" y="532" width="855" height="142" rx="12" fill="#111113" fill-opacity=".82" stroke="#00f0ff" stroke-opacity=".2"/><text x="52" y="568" fill="#a0a0a0" font-family="JetBrains Mono,monospace" font-size="13">ATTACK TIMELINE</text><rect x="52" y="605" width="780" height="14" rx="7" fill="#16161a"/><rect x="52" y="605" width="420" height="14" rx="7" fill="#00f0ff" opacity=".75" filter="url(#glow)"/><rect x="468" y="592" width="5" height="40" rx="2" fill="#00f0ff" filter="url(#glow)"/><rect x="905" y="84" width="340" height="590" rx="12" fill="#111113" fill-opacity=".82" stroke="#00f0ff" stroke-opacity=".2"/><text x="930" y="122" fill="#a0a0a0" font-family="JetBrains Mono,monospace" font-size="13">RESPONSE CONTROLS</text><g font-family="Inter,Arial" font-size="16" fill="#f0f0f0"><rect x="930" y="150" width="290" height="72" rx="12" fill="#0a0a0a" stroke="#00f0ff" stroke-opacity=".3"/><text x="954" y="192">Isolate host</text><text x="1155" y="192" fill="#00f0ff">3 cr</text><rect x="930" y="238" width="290" height="72" rx="12" fill="#0a0a0a" stroke="#c026d3" stroke-opacity=".35"/><text x="954" y="280">Reset credentials</text><text x="1155" y="280" fill="#00f0ff">2 cr</text><rect x="930" y="326" width="290" height="72" rx="12" fill="#0a0a0a" stroke="#ff3b5c" stroke-opacity=".35" opacity=".45"/><text x="954" y="368">Deploy EDR sweep</text><text x="1155" y="368" fill="#ff3b5c">X</text></g></svg>
