<svg xmlns="http://www.w3.org/2000/svg" width="1280" height="420" viewBox="0 0 1280 420">
  <defs>
    <linearGradient id="g" x1="0" y1="0" x2="1" y2="1">
      <stop offset="0%" stop-color="#0a0f1a"/>
      <stop offset="55%" stop-color="#0f172a"/>
      <stop offset="100%" stop-color="#134e4a"/>
    </linearGradient>
    <linearGradient id="accent" x1="0" y1="0" x2="1" y2="0">
      <stop offset="0%" stop-color="#22d3ee"/>
      <stop offset="100%" stop-color="#fbbf24"/>
    </linearGradient>
  </defs>
  <rect width="1280" height="420" rx="16" fill="url(#g)"/>
  <g opacity="0.35" stroke="#22d3ee" fill="none">
    <circle cx="180" cy="210" r="60"/>
    <circle cx="180" cy="210" r="95"/>
    <circle cx="180" cy="210" r="130"/>
  </g>
  <g stroke-width="2">
    <line x1="320" y1="140" x2="520" y2="100" stroke="#22d3ee"/>
    <line x1="320" y1="140" x2="520" y2="280" stroke="#22d3ee"/>
    <line x1="520" y1="100" x2="720" y2="210" stroke="#f97316" stroke-dasharray="8 6"/>
    <line x1="520" y1="280" x2="720" y2="210" stroke="#64748b"/>
    <line x1="720" y1="210" x2="920" y2="210" stroke="#ef4444"/>
  </g>
  <circle cx="320" cy="140" r="22" fill="#7c2d12" stroke="#f97316" stroke-width="3"/>
  <circle cx="520" cy="100" r="18" fill="#1e293b" stroke="#64748b" stroke-width="2"/>
  <circle cx="520" cy="280" r="18" fill="#1e293b" stroke="#64748b" stroke-width="2"/>
  <circle cx="720" cy="210" r="26" fill="#7f1d1d" stroke="#ef4444" stroke-width="3"/>
  <circle cx="920" cy="210" r="20" fill="#164e63" stroke="#22d3ee" stroke-width="2"/>
  <text x="80" y="88" fill="#22d3ee" font-family="Segoe UI, system-ui, sans-serif" font-size="22" letter-spacing="6">PORTFOLIO PROJECT</text>
  <text x="80" y="175" fill="url(#accent)" font-family="Segoe UI, system-ui, sans-serif" font-size="64" font-weight="800">Breach Budget</text>
  <text x="80" y="230" fill="#e2e8f0" font-family="Segoe UI, system-ui, sans-serif" font-size="26">Interactive blue-team incident simulator</text>
  <text x="80" y="290" fill="#94a3b8" font-family="ui-monospace, Consolas, monospace" font-size="18">12 credits · live graph · deterministic replay engine</text>
  <rect x="80" y="330" width="200" height="44" rx="8" fill="#0891b2"/>
  <text x="110" y="359" fill="#f8fafc" font-family="Segoe UI, system-ui, sans-serif" font-size="16" font-weight="600">Play the demo ’</text>
</svg>
